<svg width="24" height="24" viewBox="0 0 24 24" fill="none" xmlns="http://www.w3.org/2000/svg">
<path d="M22.4992 10.5578L20.7035 10.1789C20.4836 10.13 20.3004 9.95889 20.2393 9.73889C20.0439 9.04222 19.7751 8.37 19.4209 7.74667C19.3109 7.55111 19.3109 7.30667 19.4453 7.11111L20.447 5.57111C20.6058 5.32667 20.5691 5.00889 20.3615 4.80111L19.1766 3.61556C18.9689 3.40778 18.6513 3.38333 18.407 3.53L16.8679 4.54444C16.6724 4.66667 16.4281 4.67889 16.2326 4.56889C15.6097 4.21444 14.9378 3.93333 14.2415 3.75C14.0217 3.68889 13.8506 3.50556 13.8018 3.28556L13.4353 1.48889C13.3742 1.20778 13.1177 1 12.8368 1H11.151C10.8701 1 10.6135 1.20778 10.5525 1.48889L10.1738 3.28556C10.1249 3.50556 9.96613 3.68889 9.74625 3.75C9.04997 3.93333 8.37812 4.21444 7.75514 4.56889C7.55969 4.67889 7.30317 4.67889 7.11993 4.54444L5.58079 3.54222C5.33648 3.38333 5.01888 3.42 4.81122 3.62778L3.62632 4.81333C3.41866 5.02111 3.38201 5.33889 3.54081 5.58333L4.54248 7.12333C4.66463 7.31889 4.67685 7.56333 4.56691 7.75889C4.21266 8.38222 3.9317 9.05445 3.74847 9.75111C3.6874 9.97111 3.50416 10.13 3.28429 10.1789L1.48862 10.5578C1.20766 10.6189 1 10.8633 1 11.1567V12.8433C1 13.1367 1.20766 13.3811 1.48862 13.4422L3.28429 13.8211C3.50416 13.87 3.6874 14.0411 3.74847 14.2611C3.94392 14.9578 4.21266 15.63 4.56691 16.2533C4.67685 16.4489 4.67685 16.6933 4.54248 16.8889L3.54081 18.4289C3.38201 18.6733 3.41866 18.9911 3.62632 19.1989L4.81122 20.3844C5.01888 20.5922 5.33648 20.6167 5.58079 20.47L7.11993 19.4678C7.31538 19.3456 7.55969 19.3333 7.75514 19.4433C8.37812 19.7978 9.04997 20.0789 9.74625 20.2622C9.96613 20.3233 10.1371 20.5067 10.186 20.7267L10.5647 22.5233C10.6135 22.7922 10.8701 23 11.151 23H12.8368C13.1299 23 13.3742 22.7922 13.4353 22.5111L13.814 20.7144C13.8629 20.4944 14.0339 20.3111 14.2537 20.25C14.95 20.0544 15.6219 19.7856 16.2449 19.4311C16.4403 19.3211 16.6846 19.3211 16.8801 19.4556L18.4192 20.4578C18.6635 20.6167 18.9811 20.58 19.1888 20.3722L20.3737 19.1867C20.5813 18.9789 20.6058 18.6611 20.4592 18.4167L19.4575 16.8767C19.3354 16.6811 19.3232 16.4367 19.4331 16.2411C19.7873 15.6178 20.0683 14.9456 20.2515 14.2489C20.3126 14.0289 20.4958 13.8578 20.7157 13.8089L22.5114 13.43C22.7923 13.3689 23 13.1244 23 12.8311V11.1567C22.9878 10.8633 22.7801 10.6189 22.4992 10.5578ZM11.9939 15.6667C9.96613 15.6667 8.32926 14.0289 8.32926 12C8.32926 9.97111 9.96613 8.33333 11.9939 8.33333C14.0217 8.33333 15.6585 9.97111 15.6585 12C15.6585 14.0289 14.0217 15.6667 11.9939 15.6667Z" stroke="#0B4470" stroke-width="2"/>
</svg>
