<svg width="19" height="19" viewBox="0 0 19 19" fill="none" xmlns="http://www.w3.org/2000/svg">
<path d="M17.822 12.802H7.8534C7.7644 12.802 7.67539 12.802 7.67539 12.802C6.51832 14.5316 5.36126 16.1595 4.20419 17.8891C4.11518 18.0926 3.84817 17.9908 3.84817 17.7873C3.93717 16.1595 3.93717 14.6334 4.02618 13.0055C4.02618 12.9038 3.93717 12.802 3.84817 12.802H1.17801C1.08901 12.802 1 12.7003 1 12.5985V1.20348C1 1.10174 1.08901 1 1.17801 1H17.822C17.911 1 18 1.10174 18 1.20348V12.4968C18 12.7003 17.911 12.802 17.822 12.802Z" stroke="#0B4470" stroke-width="2" stroke-miterlimit="10" stroke-linecap="round" stroke-linejoin="round"/>
</svg>
