<svg width="25" height="20" viewBox="0 0 25 20" fill="none" xmlns="http://www.w3.org/2000/svg">
<path d="M23.952 16.9502C23.9652 18.0793 23.0568 19 21.9374 19H3C1.89543 19 1 18.1046 1 17V3C1 1.89527 1.89522 1 2.99963 1H3.00821H3.01679H3.02538H3.03397H3.04256H3.05116H3.05976H3.06837H3.07697H3.08558H3.0942H3.10282H3.11144H3.12006H3.12869H3.13732H3.14595H3.15459H3.16323H3.17187H3.18052H3.18917H3.19782H3.20648H3.21514H3.2238H3.23246H3.24113H3.2498H3.25847H3.26715H3.27583H3.28451H3.29319H3.30188H3.31057H3.31926H3.32795H3.33665H3.34535H3.35405H3.36276H3.37147H3.38018H3.38889H3.3976H3.40632H3.41504H3.42376H3.43248H3.44121H3.44994H3.45867H3.4674H3.47614H3.48488H3.49362H3.50236H3.5111H3.51985H3.52859H3.53734H3.54609H3.55485H3.5636H3.57236H3.58112H3.58988H3.59864H3.60741H3.61617H3.62494H3.63371H3.64248H3.65125H3.66003H3.6688H3.67758H3.68636H3.69514H3.70392H3.71271H3.72149H3.73028H3.73906H3.74785H3.75664H3.76543H3.77423H3.78302H3.79182H3.80061H3.80941H3.81821H3.82701H3.83581H3.84461H3.85341H3.86221H3.87102H3.87982H3.88863H3.89744H3.90625H3.91505H3.92386H3.93267H3.94148H3.9503H3.95911H3.96792H3.97673H3.98555H3.99436H4.00318H4.01199H4.02081H4.02963H4.03844H4.04726H4.05608H4.0649H4.07372H4.08253H4.09135H4.10017H4.10899H4.11781H4.12663H4.13545H4.14427H4.15309H4.16191H4.17073H4.17955H4.18837H4.19719H4.20601H4.21483H4.22365H4.23247H4.24129H4.25011H4.25893H4.26775H4.27656H4.28538H4.2942H4.30302H4.31183H4.32065H4.32947H4.33828H4.3471H4.35591H4.36472H4.37354H4.38235H4.39116H4.39997H4.40878H4.41759H4.4264H4.43521H4.44401H4.45282H4.46163H4.47043H4.47923H4.48804H4.49684H4.50564H4.51444H4.52324H4.53203H4.54083H4.54962H4.55842H4.56721H4.576H4.58479H4.59358H4.60237H4.61116H4.61994H4.62872H4.63751H4.64629H4.65507H4.66384H4.67262H4.68139H4.69017H4.69894H4.70771H4.71647H4.72524H4.73401H4.74277H4.75153H4.76029H4.76905H4.7778H4.78655H4.79531H4.80406H4.8128H4.82155H4.83029H4.83903H4.84777H4.85651H4.86525H4.87398H4.88271H4.89144H4.90017H4.90889H4.91761H4.92633H4.93505H4.94376H4.95248H4.96119H4.96989H4.9786H4.9873H4.996H5.0047H5.01339H5.02209H5.03078H5.03946H5.04815H5.05683H5.06551H5.07418H5.08286H5.09153H5.10019H5.10886H5.11752H5.12618H5.13484H5.14349H5.15214H5.16078H5.16943H5.17807H5.18671H5.19534H5.20397H5.2126H5.22122H5.22984H5.23846H5.24708H5.25569H5.26429H5.2729H5.2815H5.2901H5.29869H5.30728H5.31587H5.32445H5.33303H5.34161H5.35018H5.35875H5.36731H5.37588H5.38443H5.39299H5.40154H5.41008H5.41862H5.42716H5.4357H5.44423H5.45275H5.46128H5.46979H5.47831H5.48682H5.49533H5.50383H5.51233H5.52082H5.52931H5.53779H5.54627H5.55475H5.56322H5.57169H5.58015H5.58861H5.59707H5.60552H5.61396H5.6224H5.63084H5.63927H5.6477H5.65612H5.66454H5.67295H5.68136H5.68977H5.69816H5.70656H5.71495H5.72333H5.73171H5.74009H5.74846H5.75682H5.76518H5.77354H5.78189H5.79023H5.79857H5.80691H5.81524H5.82356H5.83188H5.84019H5.8485H5.8568H5.8651H5.87339H5.88168H5.88996H5.89824H5.90651H5.91478H5.92304H5.93129H5.93954H5.94778H5.95602H5.96425H5.97248H5.9807H5.98891H5.99712H6.00533H6.01352H6.02172H6.0299H6.03808H6.04626H6.05442H6.06259H6.07074H6.07889H6.08704H6.09517H6.10331H6.11143H6.11955H6.12767H6.13577H6.14387H6.15197H6.16006H6.16814H6.17621H6.18428H6.19235H6.2004H6.20845H6.2165H6.22453H6.23256H6.24059H6.24861H6.25662H6.26462H6.27262H6.28061H6.28859H6.29657H6.30454H6.3125H6.32046H6.32841H6.33635H6.34429H6.35222H6.36014H6.36806H6.37596H6.38387H6.39176H6.39965H6.40753H6.4154H6.42326H6.43112H6.43897H6.44682H6.45465H6.46248H6.4703H6.47812H6.48593H6.49372H6.50152H6.5093H6.51708H6.52485H6.53261H6.54036H6.54811H6.55585H6.56358H6.5713H6.57902H6.58673H6.59443H6.60212H6.60981H6.61748H6.62515H6.63281H6.64046H6.64811H6.65575H6.66338H6.671H6.67861H6.68621H6.69381H6.7014H6.70898H6.71655H6.72411H6.73167H6.73922H6.74676H6.75429H6.76181H6.76932H6.77683H6.78432H6.79181H6.79929H6.80676H6.81422H6.82168H6.82912H6.83656H6.84399H6.85141H6.85882H6.86622H6.87361H6.881H6.88837H6.89574H6.9031H6.91044H6.91778H6.92511H6.93244H6.93975H6.94705H6.95435H6.96163H6.96891H6.97617H6.98343H6.99068H6.99792H7.00515H7.01237H7.01958H7.02678H7.03397H7.04116H7.04833H7.0555H7.06265H7.0698H7.07693H7.08406H7.09117H7.09828H7.10538H7.11246H7.11954H7.12661H7.13367H7.14072H7.14775H7.15478H7.1618H7.16881H7.17581H7.1828H7.18978H7.19675H7.2037H7.21065H7.21759H7.22452H7.23144H7.23835H7.24524H7.25213H7.25901C7.72428 1 8.16677 1.16049 8.51093 1.45267C8.92658 1.80556 9.34281 2.16517 9.76289 2.52812L9.76461 2.5296C10.183 2.89109 10.6052 3.25589 11.028 3.61483C11.7449 4.22345 12.6529 4.54286 13.5773 4.54286H13.5974H13.6174H13.6375H13.6574H13.6774H13.6973H13.7171H13.737H13.7568H13.7766H13.7963H13.816H13.8357H13.8554H13.875H13.8946H13.9141H13.9336H13.9531H13.9726H13.992H14.0114H14.0308H14.0501H14.0694H14.0887H14.1079H14.1271H14.1463H14.1654H14.1845H14.2036H14.2227H14.2417H14.2607H14.2797H14.2986H14.3175H14.3364H14.3552H14.3741H14.3929H14.4116H14.4304H14.4491H14.4677H14.4864H14.505H14.5236H14.5421H14.5607H14.5792H14.5977H14.6161H14.6345H14.6529H14.6713H14.6896H14.7079H14.7262H14.7445H14.7627H14.7809H14.7991H14.8172H14.8354H14.8535H14.8715H14.8896H14.9076H14.9256H14.9436H14.9615H14.9794H14.9973H15.0152H15.033H15.0508H15.0686H15.0864H15.1041H15.1218H15.1395H15.1572H15.1748H15.1924H15.21H15.2276H15.2451H15.2627H15.2801H15.2976H15.3151H15.3325H15.3499H15.3673H15.3846H15.402H15.4193H15.4366H15.4538H15.4711H15.4883H15.5055H15.5227H15.5398H15.5569H15.574H15.5911H15.6082H15.6252H15.6423H15.6593H15.6762H15.6932H15.7101H15.727H15.7439H15.7608H15.7777H15.7945H15.8113H15.8281H15.8449H15.8616H15.8784H15.8951H15.9118H15.9284H15.9451H15.9617H15.9783H15.9949H16.0115H16.0281H16.0446H16.0611H16.0776H16.0941H16.1106H16.127H16.1434H16.1599H16.1762H16.1926H16.209H16.2253H16.2416H16.2579H16.2742H16.2905H16.3067H16.323H16.3392H16.3554H16.3716H16.3877H16.4039H16.42H16.4361H16.4522H16.4683H16.4844H16.5005H16.5165H16.5325H16.5485H16.5645H16.5805H16.5965H16.6124H16.6283H16.6442H16.6602H16.676H16.6919H16.7078H16.7236H16.7394H16.7553H16.7711H16.7868H16.8026H16.8184H16.8341H16.8499H16.8656H16.8813H16.897H16.9127H16.9283H16.944H16.9596H16.9753H16.9909H17.0065H17.0221H17.0377H17.0532H17.0688H17.0843H17.0999H17.1154H17.1309H17.1464H17.1619H17.1774H17.1928H17.2083H17.2237H17.2392H17.2546H17.27H17.2854H17.3008H17.3162H17.3315H17.3469H17.3623H17.3776H17.3929H17.4083H17.4236H17.4389H17.4542H17.4695H17.4847H17.5H17.5153H17.5305H17.5458H17.561H17.5762H17.5914H17.6066H17.6218H17.637H17.6522H17.6674H17.6826H17.6977H17.7129H17.728H17.7432H17.7583H17.7735H17.7886H17.8037H17.8188H17.8339H17.849H17.8641H17.8792H17.8942H17.9093H17.9244H17.9394H17.9545H17.9695H17.9846H17.9996H18.0147H18.0297H18.0447H18.0597H18.0747H18.0898H18.1048H18.1198H18.1348H18.1498H18.1647H18.1797H18.1947H18.2097H18.2247H18.2396H18.2546H18.2696H18.2845H18.2995H18.3144H18.3294H18.3443H18.3593H18.3742H18.3892H18.4041H18.419H18.434H18.4489H18.4638H18.4788H18.4937H18.5086H18.5235H18.5385H18.5534H18.5683H18.5832H18.5981H18.6131H18.628H18.6429H18.6578H18.6727H18.6876H18.7026H18.7175H18.7324H18.7473H18.7622H18.7771H18.7921H18.807H18.8219H18.8368H18.8517H18.8667H18.8816H18.8965H18.9114H18.9264H18.9413H18.9562H18.9712H18.9861H19.001H19.016H19.0309H19.0459H19.0608H19.0758H19.0907H19.1057H19.1206H19.1356H19.1505H19.1655H19.1805H19.1955H19.2104H19.2254H19.2404H19.2554H19.2704H19.2854H19.3004H19.3154H19.3304H19.3454H19.3604H19.3755H19.3905H19.4055H19.4206H19.4356H19.4507H19.4657H19.4808H19.4958H19.5109H19.526H19.5411H19.5562H19.5713H19.5864H19.6015H19.6166H19.6317H19.6469H19.662H19.6771H19.6923H19.7074H19.7226H19.7378H19.753H19.7682H19.7834H19.7986H19.8138H19.829H19.8442H19.8595H19.8747H19.89H19.9052H19.9205H19.9358H19.9511H19.9664H19.9817H19.997H20.0123H20.0276H20.043H20.0583H20.0737H20.0891H20.1045H20.1199H20.1353H20.1507H20.1661H20.1815H20.197H20.2124H20.2279H20.2434H20.2589H20.2744H20.2899H20.3054H20.321H20.3365H20.3521H20.3677H20.3832H20.3988H20.4144H20.4301H20.4457H20.4613H20.477H20.4927H20.5084H20.5241H20.5398H20.5555H20.5712H20.587H20.6027H20.6185H20.6343H20.6501H20.6659H20.6818H20.6976H20.7135H20.7294H20.7453H20.7612H20.7771H20.793H20.809H20.8249H20.8409H20.8569H20.8729H20.8889H20.905H20.921H20.9371H20.9532H20.9693H20.9854H21.0016H21.0177H21.0339H21.0501H21.0663H21.0825H21.0988H21.115H21.1313H21.1476H21.1639H21.1802H21.1966H21.2129H21.2293H21.2457H21.2621H21.2785H21.295H21.3115H21.3279H21.3445H21.361H21.3775H21.3941H21.4107H21.4273H21.4439H21.4605H21.4772H21.4939H21.5106H21.5273H21.544H21.5608H21.5776H21.5944H21.6112H21.628H21.6449H21.6617H21.6786H21.6956H21.7125H21.7295H21.7465H21.7635H21.7805H21.7975H21.8146H21.8317H21.8488H21.866H21.8831H21.9003C23.005 4.54286 23.9008 5.438 23.9015 6.54293C23.9038 9.85211 23.9132 13.63 23.952 16.9502Z" stroke="#0B4470" stroke-width="2" stroke-miterlimit="10"/>
</svg>
